<svg width="120" height="42" viewBox="0 0 120 42" fill="none" xmlns="http://www.w3.org/2000/svg">
<path d="M22.3203 34.3828V41H5.77734V34.3828H22.3203ZM8.23828 1.1875V41H0.226562V1.1875H8.23828ZM53.2461 18.0039V24.6484C53.2461 27.4557 52.8997 29.9167 52.207 32.0312C51.5326 34.1276 50.5664 35.8867 49.3086 37.3086C48.069 38.7122 46.5651 39.7695 44.7969 40.4805C43.0469 41.1914 41.1055 41.5469 38.9727 41.5469C36.8398 41.5469 34.8893 41.1914 33.1211 40.4805C31.3711 39.7695 29.8581 38.7122 28.582 37.3086C27.3242 35.8867 26.349 34.1276 25.6562 32.0312C24.9635 29.9167 24.6172 27.4557 24.6172 24.6484V18.0039C24.6172 15.1237 24.9544 12.6081 25.6289 10.457C26.3034 8.28776 27.2786 6.48307 28.5547 5.04297C29.8307 3.58464 31.3438 2.49089 33.0938 1.76172C34.8438 1.01432 36.7852 0.640625 38.918 0.640625C41.0508 0.640625 42.9922 1.01432 44.7422 1.76172C46.4922 2.49089 48.0052 3.58464 49.2812 5.04297C50.5573 6.48307 51.5326 8.28776 52.207 10.457C52.8997 12.6081 53.2461 15.1237 53.2461 18.0039ZM45.2891 24.6484V17.9492C45.2891 16.0534 45.1523 14.4401 44.8789 13.1094C44.6055 11.7604 44.1953 10.6576 43.6484 9.80078C43.1016 8.94401 42.4362 8.3151 41.6523 7.91406C40.8685 7.51302 39.957 7.3125 38.918 7.3125C37.8789 7.3125 36.9583 7.51302 36.1562 7.91406C35.3724 8.3151 34.707 8.94401 34.1602 9.80078C33.6315 10.6576 33.2305 11.7604 32.957 13.1094C32.7018 14.4401 32.5742 16.0534 32.5742 17.9492V24.6484C32.5742 26.4714 32.7109 28.0299 32.9844 29.3242C33.2578 30.6185 33.668 31.6758 34.2148 32.4961C34.7617 33.3164 35.4271 33.9271 36.2109 34.3281C37.013 34.7109 37.9336 34.9023 38.9727 34.9023C39.9935 34.9023 40.8958 34.7109 41.6797 34.3281C42.4818 33.9271 43.1471 33.3164 43.6758 32.4961C44.2044 31.6758 44.6055 30.6185 44.8789 29.3242C45.1523 28.0299 45.2891 26.4714 45.2891 24.6484ZM86.1133 20.082V36.4883C85.5482 37.0898 84.7188 37.7917 83.625 38.5938C82.5495 39.3776 81.1367 40.0703 79.3867 40.6719C77.6549 41.2552 75.5404 41.5469 73.043 41.5469C70.8372 41.5469 68.832 41.2005 67.0273 40.5078C65.2409 39.8151 63.7005 38.7669 62.4062 37.3633C61.1302 35.9414 60.1549 34.1732 59.4805 32.0586C58.806 29.9258 58.4688 27.401 58.4688 24.4844V17.7031C58.4688 14.8229 58.7878 12.3164 59.4258 10.1836C60.082 8.03255 61.0299 6.24609 62.2695 4.82422C63.5091 3.40234 64.9857 2.34505 66.6992 1.65234C68.431 0.959635 70.3815 0.613281 72.5508 0.613281C75.5404 0.613281 77.9922 1.11458 79.9062 2.11719C81.8385 3.11979 83.2969 4.60547 84.2812 6.57422C85.2839 8.54297 85.8854 10.9583 86.0859 13.8203H78.3477C78.2201 12.1432 77.9375 10.8307 77.5 9.88281C77.0807 8.9349 76.4883 8.26042 75.7227 7.85938C74.957 7.4401 73.9635 7.23047 72.7422 7.23047C71.6849 7.23047 70.7643 7.42188 69.9805 7.80469C69.1966 8.16927 68.5404 8.77083 68.0117 9.60938C67.4831 10.4479 67.0911 11.5234 66.8359 12.8359C66.5807 14.1484 66.4531 15.7526 66.4531 17.6484V24.4844C66.4531 26.362 66.599 27.9661 66.8906 29.2969C67.1823 30.6276 67.6107 31.7122 68.1758 32.5508C68.7591 33.3893 69.4883 34 70.3633 34.3828C71.2565 34.7474 72.3047 34.9297 73.5078 34.9297C74.474 34.9297 75.2487 34.8294 75.832 34.6289C76.4154 34.4284 76.8802 34.2188 77.2266 34C77.5911 33.763 77.8919 33.5807 78.1289 33.4531V26.125H72.4141V20.082H86.1133ZM119.855 18.0039V24.6484C119.855 27.4557 119.509 29.9167 118.816 32.0312C118.142 34.1276 117.176 35.8867 115.918 37.3086C114.678 38.7122 113.174 39.7695 111.406 40.4805C109.656 41.1914 107.715 41.5469 105.582 41.5469C103.449 41.5469 101.499 41.1914 99.7305 40.4805C97.9805 39.7695 96.4674 38.7122 95.1914 37.3086C93.9336 35.8867 92.9583 34.1276 92.2656 32.0312C91.5729 29.9167 91.2266 27.4557 91.2266 24.6484V18.0039C91.2266 15.1237 91.5638 12.6081 92.2383 10.457C92.9128 8.28776 93.888 6.48307 95.1641 5.04297C96.4401 3.58464 97.9531 2.49089 99.7031 1.76172C101.453 1.01432 103.395 0.640625 105.527 0.640625C107.66 0.640625 109.602 1.01432 111.352 1.76172C113.102 2.49089 114.615 3.58464 115.891 5.04297C117.167 6.48307 118.142 8.28776 118.816 10.457C119.509 12.6081 119.855 15.1237 119.855 18.0039ZM111.898 24.6484V17.9492C111.898 16.0534 111.762 14.4401 111.488 13.1094C111.215 11.7604 110.805 10.6576 110.258 9.80078C109.711 8.94401 109.046 8.3151 108.262 7.91406C107.478 7.51302 106.566 7.3125 105.527 7.3125C104.488 7.3125 103.568 7.51302 102.766 7.91406C101.982 8.3151 101.316 8.94401 100.77 9.80078C100.241 10.6576 99.8398 11.7604 99.5664 13.1094C99.3112 14.4401 99.1836 16.0534 99.1836 17.9492V24.6484C99.1836 26.4714 99.3203 28.0299 99.5938 29.3242C99.8672 30.6185 100.277 31.6758 100.824 32.4961C101.371 33.3164 102.036 33.9271 102.82 34.3281C103.622 34.7109 104.543 34.9023 105.582 34.9023C106.603 34.9023 107.505 34.7109 108.289 34.3281C109.091 33.9271 109.757 33.3164 110.285 32.4961C110.814 31.6758 111.215 30.6185 111.488 29.3242C111.762 28.0299 111.898 26.4714 111.898 24.6484Z" fill="black"/>
</svg>
